<?xml version="1.0" encoding="iso-8859-1"?>
<!-- Generator: Adobe Illustrator 19.0.0, SVG Export Plug-In . SVG Version: 6.00 Build 0)  -->
<svg version="1.1" id="Layer_1" xmlns="http://www.w3.org/2000/svg" xmlns:xlink="http://www.w3.org/1999/xlink" x="0px" y="0px"
	 viewBox="0 0 512 512" style="enable-background:new 0 0 512 512;" xml:space="preserve">
<g>
	<path style="fill:#3D6DEB;" d="M60.952,195.048C27.343,195.048,0,222.391,0,256s27.343,60.952,60.952,60.952
		s60.952-27.343,60.952-60.952S94.562,195.048,60.952,195.048z"/>
	<path style="fill:#3D6DEB;" d="M256,195.048c-33.609,0-60.952,27.343-60.952,60.952s27.343,60.952,60.952,60.952
		s60.952-27.343,60.952-60.952S289.609,195.048,256,195.048z"/>
	<path style="fill:#3D6DEB;" d="M451.048,195.048c-33.609,0-60.952,27.343-60.952,60.952s27.343,60.952,60.952,60.952
		S512,289.609,512,256S484.657,195.048,451.048,195.048z"/>
</g>
<g>
</g>
<g>
</g>
<g>
</g>
<g>
</g>
<g>
</g>
<g>
</g>
<g>
</g>
<g>
</g>
<g>
</g>
<g>
</g>
<g>
</g>
<g>
</g>
<g>
</g>
<g>
</g>
<g>
</g>
</svg>
